<svg xmlns="http://www.w3.org/2000/svg" width="17.999" height="14" viewBox="0 0 17.999 14">
  <g id="Group_3649" data-name="Group 3649" transform="translate(-22.001 -95)">
    <path id="Path_6665" data-name="Path 6665" d="M-9587.982,1092.363a1,1,0,0,1-.664-.253l-6.751-6a1,1,0,0,1-.336-.747,1,1,0,0,1,.336-.747l6.751-6a1,1,0,0,1,1.411.083,1,1,0,0,1-.083,1.412l-5.91,5.253,5.91,5.253a1,1,0,0,1,.083,1.412A1,1,0,0,1-9587.982,1092.363Z" transform="translate(9617.734 -983.363)" fill="#0e215e"/>
    <path id="Line_186" data-name="Line 186" d="M15,1H0A1,1,0,0,1-1,0,1,1,0,0,1,0-1H15a1,1,0,0,1,1,1A1,1,0,0,1,15,1Z" transform="translate(24 101.905)" fill="#0e215e"/>
  </g>
</svg>
